<?xml version="1.0" encoding="UTF-8" standalone="no"?>
<svg
   viewBox="0 0 1053.2267 550.81335"
   height="550.81335"
   width="1053.2267"
   xml:space="preserve"
   id="svg2"
   version="1.1"
   sodipodi:docname="Insta.svg"
   inkscape:version="1.3 (0e150ed, 2023-07-21)"
   xmlns:inkscape="http://www.inkscape.org/namespaces/inkscape"
   xmlns:sodipodi="http://sodipodi.sourceforge.net/DTD/sodipodi-0.dtd"
   xmlns="http://www.w3.org/2000/svg"
   xmlns:svg="http://www.w3.org/2000/svg"
   xmlns:rdf="http://www.w3.org/1999/02/22-rdf-syntax-ns#"
   xmlns:cc="http://creativecommons.org/ns#"
   xmlns:dc="http://purl.org/dc/elements/1.1/"><sodipodi:namedview
     id="namedview1"
     pagecolor="#ffffff"
     bordercolor="#000000"
     borderopacity="0.25"
     inkscape:showpageshadow="2"
     inkscape:pageopacity="0.0"
     inkscape:pagecheckerboard="0"
     inkscape:deskcolor="#d1d1d1"
     inkscape:zoom="0.95169365"
     inkscape:cx="737.10695"
     inkscape:cy="108.75348"
     inkscape:window-width="2240"
     inkscape:window-height="1232"
     inkscape:window-x="0"
     inkscape:window-y="28"
     inkscape:window-maximized="0"
     inkscape:current-layer="g10" /><metadata
     id="metadata8"><rdf:RDF><cc:Work
         rdf:about=""><dc:format>image/svg+xml</dc:format><dc:type
           rdf:resource="http://purl.org/dc/dcmitype/StillImage" /></cc:Work></rdf:RDF></metadata><defs
     id="defs6"><clipPath
       id="clipPath278"
       clipPathUnits="userSpaceOnUse"><path
         id="path276"
         d="m 3412.04,2919.11 c 0,-97.7 -79.2,-176.91 -176.9,-176.91 -97.71,0 -176.91,79.21 -176.91,176.91 0,97.71 79.2,176.91 176.91,176.91 97.7,0 176.9,-79.2 176.9,-176.91 z" /></clipPath><linearGradient
       id="linearGradient294"
       spreadMethod="pad"
       gradientTransform="matrix(353.746,-298.772,-298.772,-353.746,3069.42,3059.07)"
       gradientUnits="userSpaceOnUse"
       y2="0"
       x2="1"
       y1="0"
       x1="0"><stop
         id="stop280"
         offset="0"
         style="stop-opacity:1;stop-color:#f9d76c" /><stop
         id="stop282"
         offset="0.0011048"
         style="stop-opacity:1;stop-color:#f9d76c" /><stop
         id="stop284"
         offset="0.16881925"
         style="stop-opacity:1;stop-color:#008000" /><stop
         id="stop286"
         offset="0.35560334"
         style="stop-opacity:1;stop-color:#ff6600" /><stop
         id="stop288"
         offset="0.523815"
         style="stop-opacity:1;stop-color:#e62299" /><stop
         id="stop290"
         offset="0.739443"
         style="stop-opacity:1;stop-color:#ffd42a" /><stop
         id="stop292"
         offset="1"
         style="stop-opacity:1;stop-color:#4850ab" /></linearGradient><clipPath
       id="clipPath336"
       clipPathUnits="userSpaceOnUse"><path
         id="path334"
         d="m 2687.78,3033.46 c -11.45,0 -20.74,-9.29 -20.74,-20.74 0,-11.46 9.29,-20.75 20.74,-20.75 11.46,0 20.74,9.29 20.74,20.75 0,11.45 -9.28,20.74 -20.74,20.74 z" /></clipPath><linearGradient
       id="linearGradient352"
       spreadMethod="pad"
       gradientTransform="matrix(320.881,-307.137,-307.137,-320.881,2525.7,3167.86)"
       gradientUnits="userSpaceOnUse"
       y2="0"
       x2="1"
       y1="0"
       x1="0"><stop
         id="stop338"
         offset="0"
         style="stop-opacity:1;stop-color:#f9d76c" /><stop
         id="stop340"
         offset="0.0011048"
         style="stop-opacity:1;stop-color:#f9d76c" /><stop
         id="stop342"
         offset="0.209357"
         style="stop-opacity:1;stop-color:#f9a837" /><stop
         id="stop344"
         offset="0.37646"
         style="stop-opacity:1;stop-color:#f03d74" /><stop
         id="stop346"
         offset="0.523815"
         style="stop-opacity:1;stop-color:#e62299" /><stop
         id="stop348"
         offset="0.739443"
         style="stop-opacity:1;stop-color:#6f3ea2" /><stop
         id="stop350"
         offset="1"
         style="stop-opacity:1;stop-color:#4850ab" /></linearGradient><clipPath
       id="clipPath362"
       clipPathUnits="userSpaceOnUse"><path
         id="path360"
         d="m 2595.57,2863.91 c -30.78,0 -55.82,25.04 -55.82,55.81 0,30.78 25.04,55.82 55.82,55.82 30.77,0 55.81,-25.04 55.81,-55.82 0,-30.77 -25.04,-55.81 -55.81,-55.81 z m 0,142.95 c -48.05,0 -87.14,-39.09 -87.14,-87.14 0,-48.04 39.09,-87.13 87.14,-87.13 48.04,0 87.13,39.09 87.13,87.13 0,48.05 -39.09,87.14 -87.13,87.14 z" /></clipPath><linearGradient
       id="linearGradient378"
       spreadMethod="pad"
       gradientTransform="matrix(320.881,-307.137,-307.137,-320.881,2435.16,3073.26)"
       gradientUnits="userSpaceOnUse"
       y2="0"
       x2="1"
       y1="0"
       x1="0"><stop
         id="stop364"
         offset="0"
         style="stop-opacity:1;stop-color:#f9d76c" /><stop
         id="stop366"
         offset="0.0011048"
         style="stop-opacity:1;stop-color:#f9d76c" /><stop
         id="stop368"
         offset="0.209357"
         style="stop-opacity:1;stop-color:#f9a837" /><stop
         id="stop370"
         offset="0.37646"
         style="stop-opacity:1;stop-color:#f03d74" /><stop
         id="stop372"
         offset="0.523815"
         style="stop-opacity:1;stop-color:#e62299" /><stop
         id="stop374"
         offset="0.739443"
         style="stop-opacity:1;stop-color:#6f3ea2" /><stop
         id="stop376"
         offset="1"
         style="stop-opacity:1;stop-color:#4850ab" /></linearGradient><clipPath
       id="clipPath388"
       clipPathUnits="userSpaceOnUse"><path
         id="path386"
         d="m 2523.48,3063.34 c -40.25,0 -72.99,-32.74 -72.99,-72.99 v -141.26 c 0,-40.25 32.74,-72.99 72.99,-72.99 h 141.26 c 40.25,0 72.99,32.74 72.99,72.99 v 141.26 c 0,40.25 -32.74,72.99 -72.99,72.99 z m 141.26,-320.53 h -141.26 c -58.6,0 -106.27,47.68 -106.27,106.28 v 141.26 c 0,58.61 47.67,106.28 106.27,106.28 h 141.26 c 58.6,0 106.28,-47.67 106.28,-106.28 v -141.26 c 0,-58.6 -47.68,-106.28 -106.28,-106.28 z" /></clipPath><linearGradient
       id="linearGradient404"
       spreadMethod="pad"
       gradientTransform="matrix(320.879,-307.135,-307.135,-320.879,2434.46,3072.54)"
       gradientUnits="userSpaceOnUse"
       y2="0"
       x2="1"
       y1="0"
       x1="0"><stop
         id="stop390"
         offset="0"
         style="stop-opacity:1;stop-color:#f9d76c" /><stop
         id="stop392"
         offset="0.0011048"
         style="stop-opacity:1;stop-color:#f9d76c" /><stop
         id="stop394"
         offset="0.209357"
         style="stop-opacity:1;stop-color:#f9a837" /><stop
         id="stop396"
         offset="0.37646"
         style="stop-opacity:1;stop-color:#f03d74" /><stop
         id="stop398"
         offset="0.523815"
         style="stop-opacity:1;stop-color:#e62299" /><stop
         id="stop400"
         offset="0.739443"
         style="stop-opacity:1;stop-color:#6f3ea2" /><stop
         id="stop402"
         offset="1"
         style="stop-opacity:1;stop-color:#4850ab" /></linearGradient></defs><g
     transform="matrix(1.3333333,0,0,-1.3333333,0,550.81333)"
     id="g10"><g
       transform="matrix(0.1,0,0,0.1,-368.0281,7.8806874)"
       id="g12"><g
         id="g272"
         transform="matrix(6.2918873,0,0,6.2918873,-12791.603,-16386.267)"><g
           clip-path="url(#clipPath278)"
           id="g274"><path
             id="path296"
             style="fill:url(#linearGradient294);fill-opacity:1;fill-rule:nonzero;stroke:none"
             d="m 3412.04,2919.11 c 0,-97.07 -79.2,-176.91 -176.9,-176.91 -97.71,0 -176.91,79.21 -176.91,176.91 0,97.71 79.2,176.91 176.91,176.91 97.7,0 176.9,-79.2 176.9,-176.91" /></g></g><path
         id="path298"
         style="fill:#ffffff;fill-opacity:1;fill-rule:nonzero;stroke:none;stroke-width:6.29189"
         d="m 7909.0209,2401.5602 c -42.2815,0 -76.5094,-34.2908 -76.5094,-76.5094 0,-42.2814 34.2279,-76.5093 76.5094,-76.5093 42.2815,0 76.5093,34.2279 76.5093,76.5093 0,42.2186 -34.2278,76.5094 -76.5093,76.5094" /><path
         id="path300"
         style="fill:#ffffff;fill-opacity:1;fill-rule:nonzero;stroke:none;stroke-width:6.29189"
         d="m 7568.8815,1776.1466 c -113.5686,0 -205.8706,92.3649 -205.8706,205.8705 0,113.5057 92.302,205.8706 205.8706,205.8706 113.5056,0 205.8076,-92.3649 205.8076,-205.8706 0,-113.5056 -92.302,-205.8705 -205.8076,-205.8705 z m 0,527.2601 c -177.2425,0 -321.4526,-144.1471 -321.4526,-321.3896 0,-177.2424 144.2101,-321.3896 321.4526,-321.3896 177.1795,0 321.3896,144.1472 321.3896,321.3896 0,177.2425 -144.2101,321.3896 -321.3896,321.3896" /><path
         id="path302"
         style="fill:#ffffff;fill-opacity:1;fill-rule:nonzero;stroke:none;stroke-width:6.29189"
         d="m 7302.9234,2511.7941 c -148.4256,0 -269.167,-120.7414 -269.167,-269.2299 v -521.0941 c 0,-148.4256 120.7414,-269.2299 269.167,-269.2299 h 521.0941 c 148.4885,0 269.2298,120.8043 269.2298,269.2299 v 521.0941 c 0,148.4885 -120.7413,269.2299 -269.2298,269.2299 z m 521.0941,-1182.3086 h -521.0941 c -216.1263,0 -391.9846,175.8583 -391.9846,391.9846 v 521.0941 c 0,216.1263 175.8583,391.9846 391.9846,391.9846 h 521.0941 c 216.1263,0 392.0475,-175.8583 392.0475,-391.9846 v -521.0941 c 0,-216.1263 -175.9212,-391.9846 -392.0475,-391.9846" /><g
         id="g330"
         transform="matrix(6.2918873,0,0,6.2918873,-12791.603,-16386.267)"
         style="display:none"><g
           clip-path="url(#clipPath336)"
           id="g332"><path
             id="path354"
             style="fill:url(#linearGradient352);fill-opacity:1;fill-rule:nonzero;stroke:none"
             d="m 2687.78,3033.46 c -11.45,0 -20.74,-9.29 -20.74,-20.74 0,-11.46 9.29,-20.75 20.74,-20.75 11.46,0 20.74,9.29 20.74,20.75 0,11.45 -9.28,20.74 -20.74,20.74" /></g></g><g
         id="g356"
         transform="matrix(6.2918873,0,0,6.2918873,-12791.603,-16386.267)"
         style="display:none"><g
           clip-path="url(#clipPath362)"
           id="g358"
           style="display:none"><path
             id="path380"
             style="fill:url(#linearGradient378);fill-opacity:1;fill-rule:nonzero;stroke:none"
             d="m 2595.57,2863.91 c -30.78,0 -55.82,25.04 -55.82,55.81 0,30.78 25.04,55.82 55.82,55.82 30.77,0 55.81,-25.04 55.81,-55.82 0,-30.77 -25.04,-55.81 -55.81,-55.81 z m 0,142.95 c -48.05,0 -87.14,-39.09 -87.14,-87.14 0,-48.04 39.09,-87.13 87.14,-87.13 48.04,0 87.13,39.09 87.13,87.13 0,48.05 -39.09,87.14 -87.13,87.14" /></g></g><g
         id="g382"
         transform="matrix(6.2918873,0,0,6.2918873,-12791.603,-16386.267)"><g
           clip-path="url(#clipPath388)"
           id="g384"
           style="display:none"><path
             id="path406"
             style="display:none;fill:url(#linearGradient404);fill-opacity:1;fill-rule:nonzero;stroke:none"
             d="m 2523.48,3063.34 c -40.25,0 -72.99,-32.74 -72.99,-72.99 v -141.26 c 0,-40.25 32.74,-72.99 72.99,-72.99 h 141.26 c 40.25,0 72.99,32.74 72.99,72.99 v 141.26 c 0,40.25 -32.74,72.99 -72.99,72.99 z m 141.26,-320.53 h -141.26 c -58.6,0 -106.27,47.68 -106.27,106.28 v 141.26 c 0,58.61 47.67,106.28 106.27,106.28 h 141.26 c 58.6,0 106.28,-47.67 106.28,-106.28 v -141.26 c 0,-58.6 -47.68,-106.28 -106.28,-106.28" /></g></g></g></g></svg>
