<?xml version="1.0" encoding="UTF-8" standalone="no"?>
<!-- Uploaded to: SVG Repo, www.svgrepo.com, Transformed by: SVG Repo Mixer Tools -->

<svg
   height="800px"
   width="800px"
   version="1.1"
   id="Layer_1"
   viewBox="-51.2 -51.2 614.40 614.40"
   xml:space="preserve"
   fill="#000000"
   stroke="#000000"
   sodipodi:docname="LogoPropiNou.svg"
   inkscape:version="1.3 (0e150ed, 2023-07-21)"
   xmlns:inkscape="http://www.inkscape.org/namespaces/inkscape"
   xmlns:sodipodi="http://sodipodi.sourceforge.net/DTD/sodipodi-0.dtd"
   xmlns="http://www.w3.org/2000/svg"
   xmlns:svg="http://www.w3.org/2000/svg"><defs
   id="defs10" /><sodipodi:namedview
   id="namedview10"
   pagecolor="#ffffff"
   bordercolor="#000000"
   borderopacity="0.25"
   inkscape:showpageshadow="2"
   inkscape:pageopacity="0.0"
   inkscape:pagecheckerboard="0"
   inkscape:deskcolor="#d1d1d1"
   showgrid="false"
   inkscape:zoom="1.36125"
   inkscape:cx="433.05785"
   inkscape:cy="313.31497"
   inkscape:window-width="2240"
   inkscape:window-height="1260"
   inkscape:window-x="0"
   inkscape:window-y="0"
   inkscape:window-maximized="0"
   inkscape:current-layer="Layer_1" />&#10;&#10;<g
   id="SVGRepo_bgCarrier"
   stroke-width="0"
   transform="translate(0,0), scale(1)" />&#10;&#10;<g
   id="SVGRepo_tracerCarrier"
   stroke-linecap="round"
   stroke-linejoin="round"
   stroke="#CCCCCC"
   stroke-width="2.048" />&#10;&#10;&#10;&#10;<g
   id="SVGRepo_iconCarrier"
   transform="matrix(0.62161272,0,0,0.68854321,86.147769,69.295471)"> <path
   style="fill:#e9a440"
   d="m 411.151,315.116 v -105.661 0 c 42.842,0 77.576,-34.731 77.576,-77.576 0,-42.845 -34.734,-77.576 -77.576,-77.576 H 100.848 c -42.845,0 -77.576,34.731 -77.576,77.576 0,42.845 34.731,77.576 77.576,77.576 v 105.661"
   id="path1" /> <path
   style="fill:#f4d853"
   d="M 411.151,54.303 H 256 V 315.116 H 411.152 V 209.455 c 42.842,0 77.576,-34.731 77.576,-77.576 0,-42.845 -34.735,-77.576 -77.577,-77.576 z"
   id="path2" /> <path
   style="fill:#dd512a"
   d="m 411.151,338.389 c -12.853,0 -23.273,-10.42 -23.273,-23.273 V 209.455 c 0,-12.854 10.42,-23.273 23.273,-23.273 29.943,0 54.303,-24.36 54.303,-54.303 0,-29.944 -24.36,-54.303 -54.303,-54.303 H 100.848 c -29.943,0 -54.303,24.359 -54.303,54.303 0,14.505 5.649,28.143 15.905,38.398 10.256,10.256 23.892,15.905 38.397,15.905 6.173,-0.002 12.093,2.451 16.457,6.816 4.366,4.364 6.817,10.283 6.817,16.457 v 105.661 c 0,12.853 -10.42,23.273 -23.273,23.273 -12.853,0 -23.273,-10.42 -23.273,-23.273 V 230.043 C 59.531,225.803 42.972,216.624 29.537,203.188 10.49,184.143 0,158.816 0,131.879 0,76.269 45.241,31.03 100.848,31.03 H 411.151 C 466.759,31.03 512,76.269 512,131.879 c 0,47.6 -33.148,87.605 -77.576,98.138 v 85.099 c 0,12.853 -10.42,23.273 -23.273,23.273 z"
   id="path3" /> <path
   style="fill:#e17858"
   d="M 411.151,31.03 H 256 v 46.545 h 155.152 c 29.943,0 54.303,24.359 54.303,54.303 0,29.943 -24.36,54.303 -54.303,54.303 -12.853,0 -23.273,10.418 -23.273,23.273 v 105.661 c 0,12.851 10.42,23.273 23.273,23.273 12.853,0 23.273,-10.422 23.273,-23.273 V 230.016 C 478.852,219.484 512,179.479 512,131.879 512,76.269 466.759,31.03 411.151,31.03 Z"
   id="path4" /> <path
   style="fill:#f4d853"
   d="M 430.971,300.297 C 383.847,276.733 321.709,263.757 256,263.757 c -65.709,0 -127.846,12.975 -174.971,36.54 C 28.776,326.422 0,363.036 0,403.394 v 54.303 c 0,12.851 10.42,23.273 23.273,23.273 h 465.455 c 12.853,0 23.273,-10.422 23.273,-23.273 V 403.394 C 512,363.036 483.224,326.422 430.971,300.297 Z"
   id="path5" /> <g
   id="g8"> <path
   style="fill:#e9a440"
   d="M 430.971,300.297 C 383.847,276.733 321.709,263.757 256,263.757 V 480.97 H 488.727 C 501.58,480.97 512,470.548 512,457.697 v -54.303 c 0,-40.358 -28.776,-76.972 -81.029,-103.097 z"
   id="path6" /> <path
   style="fill:#e9a440"
   d="m 256,263.758 c -12.853,0 -23.273,10.418 -23.273,23.273 v 46.545 c 0,12.851 10.42,23.273 23.273,23.273 12.853,0 23.273,-10.422 23.273,-23.273 V 287.03 c 0,-12.854 -10.42,-23.272 -23.273,-23.272 z"
   id="path7" /> <path
   style="fill:#e9a440"
   d="m 162.909,273.458 c -12.853,0 -23.273,10.418 -23.273,23.273 v 36.876 c 0,12.853 10.42,23.273 23.273,23.273 12.853,0 23.273,-10.42 23.273,-23.273 V 296.73 c 0,-12.854 -10.42,-23.272 -23.273,-23.272 z"
   id="path8" /> </g> <g
   id="g10"> <path
   style="fill:#dd512a"
   d="m 349.091,273.458 c -12.853,0 -23.273,10.418 -23.273,23.273 v 36.876 c 0,12.853 10.42,23.273 23.273,23.273 12.853,0 23.273,-10.42 23.273,-23.273 V 296.73 c 0,-12.854 -10.42,-23.272 -23.273,-23.272 z"
   id="path9" /> <path
   style="fill:#dd512a"
   d="m 256,263.758 v 93.091 c 12.853,0 23.273,-10.422 23.273,-23.273 V 287.03 c 0,-12.854 -10.42,-23.272 -23.273,-23.272 z"
   id="path10" /> </g> </g><text
   xml:space="preserve"
   style="font-style:normal;font-variant:normal;font-weight:normal;font-stretch:normal;font-size:40.96px;font-family:sans-serif;-inkscape-font-specification:'sans-serif, Normal';font-variant-ligatures:normal;font-variant-caps:normal;font-variant-numeric:normal;font-variant-east-asian:normal;fill:#ffffff;stroke-width:0.768"
   x="120.31294"
   y="169.96143"
   id="text11"><tspan
     sodipodi:role="line"
     id="tspan11"
     style="font-style:normal;font-variant:normal;font-weight:bold;font-stretch:normal;font-size:40.96px;font-family:sans-serif;-inkscape-font-specification:'sans-serif, Bold';font-variant-ligatures:normal;font-variant-caps:normal;font-variant-numeric:normal;font-variant-east-asian:normal;fill:#241c1c;stroke-width:0.768"
     x="120.31294"
     y="169.96143">Crust</tspan></text><text
   xml:space="preserve"
   style="font-style:normal;font-variant:normal;font-weight:bold;font-stretch:normal;font-size:40.96px;font-family:sans-serif;-inkscape-font-specification:'sans-serif, Bold';font-variant-ligatures:normal;font-variant-caps:normal;font-variant-numeric:normal;font-variant-east-asian:normal;fill:#241c1c;stroke-width:0.768"
   x="247.81929"
   y="365.73444"
   id="text12"><tspan
     sodipodi:role="line"
     id="tspan12"
     style="stroke-width:0.768"
     x="247.81929"
     y="365.73444">Crumb</tspan></text></svg>
